<?xml version="1.0" encoding="UTF-8" standalone="no"?>
<!DOCTYPE svg PUBLIC "-//W3C//DTD SVG 1.1//EN" "http://www.w3.org/Graphics/SVG/1.1/DTD/svg11.dtd">
<svg width="100%" height="100%" viewBox="0 0 1080 1080" version="1.1" xmlns="http://www.w3.org/2000/svg" xmlns:xlink="http://www.w3.org/1999/xlink" xml:space="preserve" xmlns:serif="http://www.serif.com/" style="fill-rule:evenodd;clip-rule:evenodd;stroke-linejoin:round;stroke-miterlimit:2;">
    <g transform="matrix(0.912415,0,0,0.912415,0,0)">
        <circle cx="591.836" cy="591.836" r="591.836" style="fill:rgb(27,31,34);"/>
    </g>
    <g transform="matrix(0.304138,0,0,0.304138,360,360)">
        <circle cx="591.836" cy="591.836" r="591.836" style="fill:rgb(151,162,166);"/>
    </g>
    <g transform="matrix(0.628539,0.628539,-0.628539,0.628539,540,-138.823)">
        <path d="M666.061,14.92L663.989,240.663C743.379,273.547 806.453,336.621 839.337,416.011L1065.08,413.939C1084.97,496.803 1084.97,583.197 1065.08,666.061L839.337,663.989C806.453,743.379 743.379,806.453 663.989,839.337L666.061,1065.08C583.197,1084.97 496.803,1084.97 413.939,1065.08L416.011,839.337C336.621,806.453 273.547,743.379 240.663,663.989L14.92,666.061C-4.973,583.197 -4.973,496.803 14.92,413.939L240.663,416.011C273.547,336.621 336.621,273.547 416.011,240.663L413.939,14.92C496.803,-4.973 583.197,-4.973 666.061,14.92ZM540,270C689.017,270 810,390.983 810,540C810,689.017 689.017,810 540,810C390.983,810 270,689.017 270,540C270,390.983 390.983,270 540,270Z" style="fill:rgb(151,162,166);"/>
    </g>
    <g transform="matrix(1.0283,0,0,1.0283,-13.5827,450.119)">
        <path d="M509.174,112.184C491.739,102.089 480,83.23 480,61.651C480,29.447 506.145,3.302 538.349,3.302C570.553,3.302 596.698,29.447 596.698,61.651C596.698,83.23 584.958,102.089 567.523,112.184L567.523,142.339C567.523,158.441 554.451,171.514 538.349,171.514C522.247,171.514 509.174,158.441 509.174,142.339L509.174,112.184Z" style="fill:rgb(27,31,34);"/>
    </g>
</svg>
